<svg width="current" height="current" viewBox="0 0 151 62" fill="none" xmlns="http://www.w3.org/2000/svg">
<path d="M46.9355 21.7809C46.2043 21.7809 45.6091 21.2485 45.1955 20.6455C45.19 20.6374 45.1844 20.6294 45.1788 20.6213C44.9459 20.2805 44.6549 19.9937 44.3056 19.761C43.9647 19.5199 43.5655 19.3412 43.1081 19.2248C42.659 19.1001 42.1642 19.0378 41.6237 19.0378C40.4595 19.0378 39.4657 19.3163 38.6424 19.8732C37.8274 20.4301 37.2037 21.2323 36.7713 22.2797C36.3472 23.3271 36.1351 24.5906 36.1351 26.0702C36.1351 27.5665 36.3389 28.8466 36.7464 29.9106C37.1538 30.9746 37.7609 31.7892 38.5676 32.3545C39.3742 32.9197 40.3763 33.2024 41.5738 33.2024C42.6299 33.2024 43.5073 33.0486 44.2058 32.741C44.9127 32.4335 45.4407 31.9971 45.79 31.4318C46.0559 31.0015 46.2206 30.5134 46.2841 29.9674C46.3239 29.6247 46.2015 29.2878 45.9937 29.0123L45.6838 28.6015C45.0436 27.7527 43.7375 27.8603 43.2447 28.8022V28.8022C42.543 30.1434 40.5136 29.6446 40.5136 28.131V26.2116C40.5136 25.3347 41.2245 24.6238 42.1014 24.6238H51.4122C52.2891 24.6238 53 25.3347 53 26.2116V28.165C53 30.4925 52.9977 33.8205 52.0081 35.4747C51.0268 37.1206 50.9543 37.0547 49.1979 38.2837C47.4765 39.1565 43.7526 39.2373 41.5239 39.2373C39.0374 39.2373 36.8545 38.7094 34.9751 37.6537C33.0956 36.598 31.6279 35.0935 30.5717 33.14C29.5239 31.1866 29 28.8632 29 26.17C29 24.0586 29 21.6687 29 19.761C29 17.6308 29.0818 15.5296 30.2294 14.4074C31.377 13.2769 32.8639 13.1784 35.4985 13.0029C37.2548 13.0029 39.573 13.0029 41.2944 13.0029C42.8079 13.0029 46.0365 13.0029 47.7929 13.0029C49.5492 13.0029 51.0102 12.9154 52.0081 13.7051C52.8862 14.4 53 15.7994 53 17.0408C53 18.03 53 19.1839 53 20.1932C53 21.0701 52.2891 21.7809 51.4122 21.7809H46.9355Z" fill="#1F2DAF"/>
<path d="M57.7167 22.112C56.97 22.112 56.3887 21.9253 55.9727 21.552C55.5674 21.168 55.3647 20.64 55.3647 19.968V15.712C55.3647 15.04 55.5674 14.5173 55.9727 14.144C56.3887 13.76 56.97 13.568 57.7167 13.568C58.4634 13.568 59.0394 13.76 59.4447 14.144C59.8607 14.5173 60.0687 15.04 60.0687 15.712V19.968C60.0687 20.64 59.8607 21.168 59.4447 21.552C59.0394 21.9253 58.4634 22.112 57.7167 22.112ZM57.7167 21.12C58.058 21.12 58.3247 21.024 58.5167 20.832C58.7194 20.6293 58.8207 20.3413 58.8207 19.968V15.712C58.8207 15.3387 58.7194 15.056 58.5167 14.864C58.3247 14.6613 58.058 14.56 57.7167 14.56C57.3754 14.56 57.1034 14.6613 56.9007 14.864C56.7087 15.056 56.6127 15.3387 56.6127 15.712V19.968C56.6127 20.3413 56.7087 20.6293 56.9007 20.832C57.1034 21.024 57.3754 21.12 57.7167 21.12ZM63.0291 13.68H64.0211L64.1651 14.144L64.8211 13.952C65.2691 13.8133 65.6211 13.7173 65.8771 13.664C66.1437 13.6 66.3944 13.568 66.6291 13.568C67.0131 13.568 67.2957 13.7013 67.4771 13.968C67.6584 14.2347 67.7491 14.5813 67.7491 15.008V22H66.4691V15.424C66.4691 15.1147 66.4477 14.9013 66.4051 14.784C66.3624 14.656 66.2557 14.592 66.0851 14.592C65.9997 14.592 65.4077 14.7627 64.3091 15.104V22H63.0291V13.68ZM71.5611 23.6H73.2091C73.4544 23.6 73.6464 23.5147 73.7851 23.344C73.9344 23.184 74.0091 22.976 74.0091 22.72V22.016H72.6811C72.0944 22.016 71.5984 21.824 71.1931 21.44C70.7877 21.056 70.5851 20.576 70.5851 20V15.696C70.5851 15.12 70.7877 14.64 71.1931 14.256C71.6091 13.872 72.1104 13.68 72.6971 13.68H75.3051V22.608C75.3051 23.2053 75.1397 23.68 74.8091 24.032C74.4891 24.384 74.0357 24.56 73.4491 24.56H71.5611V23.6ZM74.0251 21.056V14.64H72.9531C72.6544 14.64 72.3984 14.7413 72.1851 14.944C71.9717 15.1467 71.8651 15.3973 71.8651 15.696V20C71.8651 20.2987 71.9717 20.5493 72.1851 20.752C72.3984 20.9547 72.6544 21.056 72.9531 21.056H74.0251ZM80.4529 22.112C79.7063 22.112 79.1249 21.9253 78.7089 21.552C78.3036 21.168 78.1009 20.64 78.1009 19.968V15.712C78.1009 15.04 78.3036 14.5173 78.7089 14.144C79.1249 13.76 79.7063 13.568 80.4529 13.568C81.1996 13.568 81.7756 13.76 82.1809 14.144C82.5969 14.5173 82.8049 15.04 82.8049 15.712V19.968C82.8049 20.64 82.5969 21.168 82.1809 21.552C81.7756 21.9253 81.1996 22.112 80.4529 22.112ZM80.4529 21.12C80.7943 21.12 81.0609 21.024 81.2529 20.832C81.4556 20.6293 81.5569 20.3413 81.5569 19.968V15.712C81.5569 15.3387 81.4556 15.056 81.2529 14.864C81.0609 14.6613 80.7943 14.56 80.4529 14.56C80.1116 14.56 79.8396 14.6613 79.6369 14.864C79.4449 15.056 79.3489 15.3387 79.3489 15.712V19.968C79.3489 20.3413 79.4449 20.6293 79.6369 20.832C79.8396 21.024 80.1116 21.12 80.4529 21.12ZM85.7653 13.68H86.7573L86.9013 14.144L87.5573 13.952C88.0053 13.8133 88.3573 13.7173 88.6133 13.664C88.88 13.6 89.1306 13.568 89.3653 13.568C89.824 13.568 90.144 13.7707 90.3253 14.176C90.624 14.0693 91.0453 13.9413 91.5893 13.792C92.1333 13.6427 92.5333 13.568 92.7893 13.568C93.1733 13.568 93.456 13.7013 93.6373 13.968C93.8293 14.2347 93.9253 14.5813 93.9253 15.008V22H92.6453V15.424C92.6453 15.1147 92.624 14.9013 92.5813 14.784C92.5386 14.656 92.432 14.592 92.2613 14.592C92.176 14.592 91.5893 14.7627 90.5013 15.104V22H89.2213V15.424C89.2213 15.1147 89.2 14.9013 89.1573 14.784C89.1146 14.656 89.008 14.592 88.8373 14.592C88.752 14.592 88.1546 14.7627 87.0453 15.104V22H85.7653V13.68ZM99.0792 22.112C98.3325 22.112 97.7512 21.9253 97.3352 21.552C96.9299 21.168 96.7272 20.64 96.7272 19.968V15.712C96.7272 15.04 96.9299 14.5173 97.3352 14.144C97.7512 13.76 98.3325 13.568 99.0792 13.568C99.8259 13.568 100.402 13.76 100.807 14.144C101.223 14.5173 101.431 15.04 101.431 15.712V19.968C101.431 20.64 101.223 21.168 100.807 21.552C100.402 21.9253 99.8259 22.112 99.0792 22.112ZM99.0792 21.12C99.4205 21.12 99.6872 21.024 99.8792 20.832C100.082 20.6293 100.183 20.3413 100.183 19.968V15.712C100.183 15.3387 100.082 15.056 99.8792 14.864C99.6872 14.6613 99.4205 14.56 99.0792 14.56C98.7379 14.56 98.4659 14.6613 98.2632 14.864C98.0712 15.056 97.9752 15.3387 97.9752 15.712V19.968C97.9752 20.3413 98.0712 20.6293 98.2632 20.832C98.4659 21.024 98.7379 21.12 99.0792 21.12ZM106.088 22C105.704 22 105.346 21.904 105.016 21.712C104.696 21.52 104.44 21.2587 104.248 20.928C104.066 20.5973 103.976 20.224 103.976 19.808V18.976C103.976 18.4747 104.098 18.0533 104.344 17.712C104.6 17.3707 104.914 17.1307 105.288 16.992L107.272 16.256V15.504C107.272 15.248 107.192 15.04 107.032 14.88C106.882 14.7093 106.685 14.624 106.44 14.624H104.632V13.68H106.552C107.138 13.68 107.602 13.856 107.944 14.208C108.296 14.5493 108.472 15.0187 108.472 15.616V22H106.088ZM107.272 21.024V17.264L105.864 17.792C105.586 17.8987 105.389 18.0427 105.272 18.224C105.165 18.4053 105.112 18.6933 105.112 19.088V19.984C105.112 20.272 105.218 20.5173 105.432 20.72C105.645 20.9227 105.901 21.024 106.2 21.024H107.272Z" fill="#1F2DAF"/>
<path d="M57.9133 29.936C59.4813 29.936 60.4813 30.448 60.4813 31.304C60.4813 32.144 59.4813 32.656 57.9133 32.656C56.3533 32.656 55.3533 32.144 55.3533 31.304C55.3533 30.448 56.3533 29.936 57.9133 29.936ZM57.9133 30.576C56.8413 30.576 56.1853 30.84 56.1853 31.304C56.1853 31.752 56.8413 32.016 57.9133 32.016C58.9933 32.016 59.6493 31.752 59.6493 31.304C59.6493 30.84 58.9933 30.576 57.9133 30.576ZM55.4173 25.704H60.0893V26.368H55.4173V25.704ZM54.6573 28.696H61.2413V29.36H54.6573V28.696ZM57.2413 27.344H58.0733V28.872H57.2413V27.344ZM59.6013 25.704H60.4333V26.312C60.4333 26.896 60.4333 27.504 60.2333 28.256L59.4013 28.168C59.6013 27.416 59.6013 26.88 59.6013 26.312V25.704ZM62.6966 26.032H67.3686V26.712H62.6966V26.032ZM62.0086 31.016H68.6166V31.704H62.0086V31.016ZM64.4726 28.448H65.3126V31.36H64.4726V28.448ZM67.0566 26.032H67.8966V26.744C67.8966 27.656 67.8966 28.672 67.6166 30.184L66.7766 30.088C67.0566 28.664 67.0566 27.624 67.0566 26.744V26.032ZM69.368 31.08H75.992V31.768H69.368V31.08ZM72.248 29.312H73.08V31.256H72.248V29.312ZM70.104 25.928H75.216V29.44H70.104V25.928ZM74.4 26.6H70.928V28.768H74.4V26.6ZM78.6714 25.888C79.7594 25.888 80.5434 26.888 80.5434 28.464C80.5434 30.04 79.7594 31.048 78.6714 31.048C77.5834 31.048 76.7994 30.04 76.7994 28.464C76.7994 26.888 77.5834 25.888 78.6714 25.888ZM78.6714 26.648C78.0394 26.648 77.5994 27.328 77.5994 28.464C77.5994 29.608 78.0394 30.296 78.6714 30.296C79.3034 30.296 79.7434 29.608 79.7434 28.464C79.7434 27.328 79.3034 26.648 78.6714 26.648ZM81.5514 25.352H82.3914V32.664H81.5514V25.352ZM82.1994 28.2H83.5274V28.896H82.1994V28.2Z" fill="#1F2DAF"/>
</svg>
